<svg width="66" height="84" viewBox="0 0 66 84" fill="none" xmlns="http://www.w3.org/2000/svg">
<path d="M66 4.875V79.125C66 80.219 65.5654 81.2682 64.7918 82.0418C64.0182 82.8154 62.969 83.25 61.875 83.25H4.125C3.03098 83.25 1.98177 82.8154 1.20818 82.0418C0.434596 81.2682 0 80.219 0 79.125V4.875C0 3.78098 0.434596 2.73177 1.20818 1.95818C1.98177 1.1846 3.03098 0.75 4.125 0.75H48.125C48.4897 0.75 48.8394 0.894866 49.0973 1.15273C49.3551 1.41059 49.5 1.76033 49.5 2.125C49.5 2.48967 49.3551 2.83941 49.0973 3.09727C48.8394 3.35513 48.4897 3.5 48.125 3.5H4.125C3.76033 3.5 3.41059 3.64487 3.15273 3.90273C2.89487 4.16059 2.75 4.51033 2.75 4.875V79.125C2.75 79.4897 2.89487 79.8394 3.15273 80.0973C3.41059 80.3551 3.76033 80.5 4.125 80.5H61.875C62.2397 80.5 62.5894 80.3551 62.8473 80.0973C63.1051 79.8394 63.25 79.4897 63.25 79.125V4.875C63.25 4.51033 63.1051 4.16059 62.8473 3.90273C62.5894 3.64487 62.2397 3.5 61.875 3.5H56.375C56.0103 3.5 55.6606 3.35513 55.4027 3.09727C55.1449 2.83941 55 2.48967 55 2.125C55 1.76033 55.1449 1.41059 55.4027 1.15273C55.6606 0.894866 56.0103 0.75 56.375 0.75H61.875C62.969 0.75 64.0182 1.1846 64.7918 1.95818C65.5654 2.73177 66 3.78098 66 4.875ZM11 24.125V72.25H55V11.75H48.125V15.875C48.125 16.2397 47.9801 16.5894 47.7223 16.8473C47.4644 17.1051 47.1147 17.25 46.75 17.25H19.25C18.8853 17.25 18.5356 17.1051 18.2777 16.8473C18.0199 16.5894 17.875 16.2397 17.875 15.875V11.75H11V15.875C11 16.2397 10.8551 16.5894 10.5973 16.8473C10.3394 17.1051 9.98967 17.25 9.625 17.25C9.26033 17.25 8.91059 17.1051 8.65273 16.8473C8.39487 16.5894 8.25 16.2397 8.25 15.875V10.375C8.25 10.0103 8.39487 9.66059 8.65273 9.40273C8.91059 9.14487 9.26033 9 9.625 9H17.875V7.625C17.875 7.26033 18.0199 6.91059 18.2777 6.65273C18.5356 6.39487 18.8853 6.25 19.25 6.25H46.75C47.1147 6.25 47.4644 6.39487 47.7223 6.65273C47.9801 6.91059 48.125 7.26033 48.125 7.625V9H56.375C56.7397 9 57.0894 9.14487 57.3473 9.40273C57.6051 9.66059 57.75 10.0103 57.75 10.375V73.625C57.75 73.9897 57.6051 74.3394 57.3473 74.5973C57.0894 74.8551 56.7397 75 56.375 75H9.625C9.26033 75 8.91059 74.8551 8.65273 74.5973C8.39487 74.3394 8.25 73.9897 8.25 73.625V24.125C8.25 23.7603 8.39487 23.4106 8.65273 23.1527C8.91059 22.8949 9.26033 22.75 9.625 22.75C9.98967 22.75 10.3394 22.8949 10.5973 23.1527C10.8551 23.4106 11 23.7603 11 24.125ZM45.375 9H20.625V14.5H45.375V9ZM24.4585 43.6596C22.7 41.894 21.7134 39.5031 21.715 37.0112C21.7165 34.5192 22.7061 32.1296 24.4668 30.3661L28.2507 26.5863C29.1228 25.7087 30.1596 25.0119 31.3016 24.5359C32.4435 24.0598 33.6683 23.814 34.9055 23.8123C36.1427 23.8106 37.368 24.0533 38.5113 24.5262C39.6545 24.9992 40.6932 25.6932 41.5676 26.5684C42.442 27.4437 43.1351 28.483 43.607 29.6266C44.0789 30.7703 44.3203 31.9959 44.3175 33.2331C44.3147 34.4703 44.0677 35.6948 43.5906 36.8363C43.1135 37.9779 42.4158 39.014 41.5374 39.8853L37.7534 43.6651C35.9892 45.4254 33.5988 46.4139 31.1066 46.4139C28.6145 46.4139 26.2241 45.4254 24.4599 43.6651L24.4585 43.6596ZM26.4 41.7154C27.0157 42.3352 27.7482 42.8268 28.5552 43.1617C29.3621 43.4966 30.2274 43.6682 31.1011 43.6665C31.975 43.6702 32.841 43.5005 33.6489 43.1672C34.4568 42.834 35.1906 42.3438 35.8078 41.725L39.5917 37.9451C40.5223 37.0155 41.1563 35.8309 41.4136 34.5411C41.6709 33.2512 41.54 31.914 41.0374 30.6985C40.5348 29.483 39.6831 28.4438 38.59 27.7124C37.4969 26.9809 36.2114 26.59 34.8961 26.589C34.0233 26.5851 33.1583 26.7542 32.3512 27.0865C31.5441 27.4188 30.8108 27.9077 30.1936 28.525L26.4096 32.3063C25.1614 33.5531 24.4592 35.2445 24.4574 37.0088C24.4556 38.7731 25.1543 40.466 26.4 41.7154ZM28.2645 41.2272C28.3569 41.2278 28.4491 41.2186 28.5395 41.1997L29.5584 40.9976C30.9148 40.7233 32.1349 39.9891 33.0125 38.9191C33.8902 37.8491 34.3714 36.5089 34.375 35.125C34.3773 34.3755 34.6386 33.6498 35.1148 33.0709C35.5909 32.4921 36.2525 32.0956 36.9875 31.9488L38.0064 31.7466C38.1864 31.7145 38.3582 31.6467 38.5117 31.5473C38.6652 31.4479 38.7974 31.3189 38.9005 31.1678C39.0035 31.0168 39.0754 30.8466 39.1119 30.6674C39.1484 30.4882 39.1487 30.3035 39.113 30.1242C39.0772 29.9448 39.006 29.7744 38.9036 29.6229C38.8012 29.4714 38.6695 29.3419 38.5164 29.2419C38.3633 29.1419 38.1918 29.0734 38.0119 29.0405C37.832 29.0076 37.6474 29.0109 37.4688 29.0503L36.4485 29.2524C35.0908 29.5253 33.8691 30.2589 32.9901 31.329C32.1112 32.3992 31.6289 33.7402 31.625 35.125C31.6227 35.8745 31.3614 36.6002 30.8852 37.1791C30.4091 37.7579 29.7475 38.1544 29.0125 38.3013L27.9936 38.5034C27.6579 38.5697 27.359 38.7589 27.1553 39.0339C26.9517 39.3089 26.8578 39.6499 26.8922 39.9904C26.9266 40.3309 27.0867 40.6463 27.3412 40.875C27.5958 41.1037 27.9264 41.2293 28.2686 41.2272H28.2645ZM17.875 64H48.125C48.4897 64 48.8394 63.8551 49.0973 63.5973C49.3551 63.3394 49.5 62.9897 49.5 62.625C49.5 62.2603 49.3551 61.9106 49.0973 61.6527C48.8394 61.3949 48.4897 61.25 48.125 61.25H17.875C17.5103 61.25 17.1606 61.3949 16.9027 61.6527C16.6449 61.9106 16.5 62.2603 16.5 62.625C16.5 62.9897 16.6449 63.3394 16.9027 63.5973C17.1606 63.8551 17.5103 64 17.875 64ZM16.5 54.375C16.5 54.7397 16.6449 55.0894 16.9027 55.3473C17.1606 55.6051 17.5103 55.75 17.875 55.75H48.125C48.4897 55.75 48.8394 55.6051 49.0973 55.3473C49.3551 55.0894 49.5 54.7397 49.5 54.375C49.5 54.0103 49.3551 53.6606 49.0973 53.4027C48.8394 53.1449 48.4897 53 48.125 53H17.875C17.5103 53 17.1606 53.1449 16.9027 53.4027C16.6449 53.6606 16.5 54.0103 16.5 54.375Z" fill="#836E90"/>
</svg>
