<svg width="70" height="88" viewBox="0 0 70 88" fill="none" xmlns="http://www.w3.org/2000/svg">
<path d="M62.5545 6.88845H51.4469V6.80235C51.4469 5.33046 50.2495 4.13307 48.7776 4.13307H41.803V4.04697C41.803 1.81545 39.9876 0 37.7561 0H32.2453C30.0138 0 28.1983 1.81545 28.1983 4.04697V4.13307H21.2238C19.7519 4.13307 18.5545 5.33046 18.5545 6.80235V6.88845H7.44688C3.69612 6.88845 0.644531 9.94004 0.644531 13.6908V81.1977C0.644531 84.9484 3.69612 88 7.44688 88H62.5545C66.3053 88 69.3569 84.9484 69.3569 81.1977V13.6908C69.3569 9.94004 66.3053 6.88845 62.5545 6.88845ZM50.1549 14.9824H61.1768C61.2243 14.9824 61.2629 15.021 61.2629 15.0685V79.82C61.2629 79.8675 61.2243 79.9061 61.1768 79.9061H8.82457C8.77704 79.9061 8.73846 79.8675 8.73846 79.82V15.0685C8.73846 15.021 8.77704 14.9824 8.82457 14.9824H19.8463C19.8616 14.9824 19.8764 14.9807 19.8916 14.9801C21.132 16.652 23.1198 17.7378 25.3569 17.7378H44.6445C46.8816 17.7378 48.8694 16.652 50.1098 14.9801C50.125 14.9807 50.1398 14.9824 50.1549 14.9824ZM30.7815 4.04697C30.7815 3.23981 31.4382 2.58317 32.2453 2.58317H37.7561C38.5632 2.58317 39.2199 3.23981 39.2199 4.04697V4.13307H30.7815V4.04697ZM21.1377 6.80235C21.1377 6.75482 21.1763 6.71624 21.2238 6.71624H48.7776C48.8251 6.71624 48.8637 6.75482 48.8637 6.80235V8.17005C48.8637 8.1735 48.8632 8.17677 48.8632 8.18004C48.8632 8.18331 48.8637 8.18676 48.8637 8.19003V10.9354C48.8637 13.2618 46.9709 15.1546 44.6445 15.1546H25.3569C23.0305 15.1546 21.1377 13.2618 21.1377 10.9354V6.80235ZM66.7737 81.1977C66.7737 83.5241 64.8809 85.4168 62.5545 85.4168H7.44688C5.12048 85.4168 3.2277 83.5241 3.2277 81.1977V13.6908C3.2277 11.3644 5.12048 9.47162 7.44688 9.47162H18.5545V10.9354C18.5545 11.4379 18.611 11.9274 18.7148 12.3992H8.82457C7.35268 12.3992 6.15529 13.5966 6.15529 15.0685V79.82C6.15529 81.2918 7.35268 82.4892 8.82457 82.4892H61.1768C62.6487 82.4892 63.8461 81.2918 63.8461 79.82V15.0685C63.8461 13.5966 62.6487 12.3992 61.1768 12.3992H51.2865C51.3906 11.9274 51.4469 11.4379 51.4469 10.9354V9.47162H62.5545C64.8809 9.47162 66.7737 11.3644 66.7737 13.6908V81.1977Z" fill="#836E90"/>
<path d="M15.8857 37.0254H26.5628C27.3699 37.0254 28.0266 36.3687 28.0266 35.5616V24.8845C28.0266 24.0773 27.3699 23.4207 26.5628 23.4207H15.8857C15.0785 23.4207 14.4219 24.0773 14.4219 24.8845V35.5616C14.4219 36.3687 15.0785 37.0254 15.8857 37.0254ZM17.005 26.0038H25.4434V34.4422H17.005V26.0038Z" fill="#836E90"/>
<path d="M26.5628 59.2407H15.8857C15.0785 59.2407 14.4219 59.8974 14.4219 60.7045V71.3816C14.4219 72.1888 15.0785 72.8454 15.8857 72.8454H26.5628C27.3699 72.8454 28.0266 72.1888 28.0266 71.3816V60.7045C28.0266 59.8974 27.3699 59.2407 26.5628 59.2407ZM25.4434 70.2622H17.005V61.8239H25.4434V70.2622Z" fill="#836E90"/>
<path d="M28.5771 41.7092L27.6486 42.6377C27.1824 41.8567 26.3312 41.3308 25.3573 41.3308H17.0912C15.6193 41.3308 14.4219 42.5282 14.4219 44.0001V52.2662C14.4219 53.7381 15.6193 54.9355 17.0912 54.9355H25.3573C26.8292 54.9355 28.0266 53.7381 28.0266 52.2662V50.8885C28.0266 50.1752 27.4483 49.597 26.735 49.597C26.0217 49.597 25.4434 50.1752 25.4434 50.8885V52.2662C25.4434 52.3138 25.4048 52.3523 25.3573 52.3523H17.0912C17.0436 52.3523 17.005 52.3138 17.005 52.2662V44.0001C17.005 43.9526 17.0436 43.914 17.0912 43.914H25.3573C25.4048 43.914 25.4434 43.9526 25.4434 44.0001V44.8429L22.6019 47.6844L20.7598 45.8422C20.2554 45.3378 19.4375 45.3378 18.9333 45.8422C18.4289 46.3466 18.4289 47.1643 18.9333 47.6687L21.6887 50.4241C21.9408 50.6764 22.2714 50.8024 22.6019 50.8024C22.9324 50.8024 23.263 50.6764 23.5152 50.4241L27.6481 46.2912L27.6484 46.2908L30.4036 43.5356C30.908 43.0312 30.908 42.2136 30.4036 41.7092C29.8994 41.2048 29.0814 41.2048 28.5771 41.7092Z" fill="#836E90"/>
<path d="M32.2447 27.3815H36.3778C37.0911 27.3815 37.6694 26.8032 37.6694 26.0899C37.6694 25.3766 37.0911 24.7983 36.3778 24.7983H32.2447C31.5314 24.7983 30.9531 25.3766 30.9531 26.0899C30.9531 26.8032 31.5314 27.3815 32.2447 27.3815Z" fill="#836E90"/>
<path d="M30.9531 31.6007C30.9531 32.314 31.5314 32.8923 32.2447 32.8923H52.9101C53.6234 32.8923 54.2017 32.314 54.2017 31.6007C54.2017 30.8874 53.6234 30.3091 52.9101 30.3091H32.2447C31.5314 30.3091 30.9531 30.8874 30.9531 31.6007Z" fill="#836E90"/>
<path d="M32.2447 46.6694H46.0216C46.7349 46.6694 47.3132 46.0911 47.3132 45.3778C47.3132 44.6645 46.7349 44.0862 46.0216 44.0862H32.2447C31.5314 44.0862 30.9531 44.6645 30.9531 45.3778C30.9531 46.0911 31.5314 46.6694 32.2447 46.6694Z" fill="#836E90"/>
<path d="M52.9101 49.5969H32.2447C31.5314 49.5969 30.9531 50.1752 30.9531 50.8885C30.9531 51.6018 31.5314 52.1801 32.2447 52.1801H52.9101C53.6234 52.1801 54.2017 51.6018 54.2017 50.8885C54.2017 50.1752 53.6234 49.5969 52.9101 49.5969Z" fill="#836E90"/>
<path d="M32.2447 64.5793H37.7555C38.4688 64.5793 39.0471 64.001 39.0471 63.2877C39.0471 62.5744 38.4688 61.9961 37.7555 61.9961H32.2447C31.5314 61.9961 30.9531 62.5744 30.9531 63.2877C30.9531 64.001 31.5314 64.5793 32.2447 64.5793Z" fill="#836E90"/>
<path d="M52.9101 67.5068H32.2447C31.5314 67.5068 30.9531 68.0851 30.9531 68.7984C30.9531 69.5117 31.5314 70.09 32.2447 70.09H52.9101C53.6234 70.09 54.2017 69.5117 54.2017 68.7984C54.2017 68.0851 53.6234 67.5068 52.9101 67.5068Z" fill="#836E90"/>
</svg>
