<svg width="101" height="109" viewBox="0 0 101 109" fill="none" xmlns="http://www.w3.org/2000/svg">
<path d="M92.58 89.8815H8.42001C3.77733 89.8815 0 86.0521 0 81.3453V77.9323C0 76.9901 0.754387 76.2253 1.68369 76.2253H40.4002C40.8463 76.2253 41.2755 76.405 41.5899 76.7253L44.4634 79.6384H56.5366L59.4101 76.7253C59.7245 76.405 60.1537 76.2253 60.5998 76.2253H99.3163C100.246 76.2253 101 76.9901 101 77.9323V81.3453C101 86.0521 97.2227 89.8815 92.58 89.8815ZM3.36662 79.6384V81.3453C3.36662 84.1694 5.6344 86.4684 8.42001 86.4684H92.58C95.3656 86.4684 97.6334 84.1694 97.6334 81.3453V79.6384H61.2972L58.4238 82.5515C58.1086 82.8726 57.6794 83.0515 57.2332 83.0515H43.7668C43.3206 83.0515 42.8914 82.8726 42.5762 82.5515L39.7028 79.6384H3.36662Z" fill="#836E90"/>
<path d="M57.2349 83.0512H43.7685C43.3223 83.0512 42.8931 82.8723 42.578 82.5513L39.7045 79.6382H11.7853C10.8559 79.6382 10.1016 78.8741 10.1016 77.932V26.7352C10.1016 25.7931 10.8559 25.0283 11.7853 25.0283H89.2182C90.1475 25.0283 90.9019 25.7931 90.9019 26.7352V77.932C90.9019 78.8741 90.1475 79.6382 89.2182 79.6382H61.2989L58.4255 82.5513C58.1103 82.8723 57.6811 83.0512 57.2349 83.0512ZM44.4651 79.6382H56.5384L59.4118 76.7251C59.7262 76.4048 60.1554 76.2251 60.6016 76.2251H87.5353V28.4414H13.4682V76.2251H40.4019C40.848 76.2251 41.2772 76.4048 41.5916 76.7251L44.4651 79.6382Z" fill="#836E90"/>
<path d="M57.2338 83.0512H43.7673C43.3212 83.0512 42.892 82.8723 42.5768 82.5512L39.7034 79.6381H5.05088C4.12157 79.6381 3.36719 78.8741 3.36719 77.932V24.1221C3.36719 20.8574 5.98635 18.2021 9.20656 18.2021H91.7946C95.0148 18.2021 97.634 20.8574 97.634 24.1221V77.932C97.634 78.8741 96.8796 79.6381 95.9503 79.6381H61.2978L58.4243 82.5512C58.1092 82.8723 57.68 83.0512 57.2338 83.0512ZM44.4639 79.6381H56.5372L59.4107 76.725C59.7251 76.4047 60.1543 76.225 60.6004 76.225H94.2673V24.1221C94.2673 22.7401 93.1577 21.6152 91.7946 21.6152H9.20656C7.84342 21.6152 6.7338 22.7401 6.7338 24.1221V76.225H40.4007C40.8469 76.225 41.2761 76.4047 41.5905 76.725L44.4639 79.6381Z" fill="#836E90"/>
<path d="M43.7656 60.8698H20.1985C19.27 60.8698 18.5156 60.105 18.5156 59.1629V42.0975C18.5156 41.1554 19.27 40.3906 20.1985 40.3906H43.7656C44.6949 40.3906 45.4485 41.1554 45.4485 42.0975V59.1629C45.4485 60.105 44.6949 60.8698 43.7656 60.8698ZM21.8822 57.4567H42.0819V43.8037H21.8822V57.4567Z" fill="#836E90"/>
<path d="M38.7127 43.8039H25.2462C24.3169 43.8039 23.5625 43.0399 23.5625 42.0978V35.2716C23.5625 34.3295 24.3169 33.5647 25.2462 33.5647H38.7127C39.642 33.5647 40.3963 34.3295 40.3963 35.2716V42.0978C40.3963 43.0399 39.642 43.8039 38.7127 43.8039ZM26.9299 40.3908H37.0297V36.9778H26.9299V40.3908Z" fill="#836E90"/>
<path d="M38.7153 52.337H25.2489C21.5355 52.337 18.5156 49.2755 18.5156 45.5109C18.5156 44.5688 19.27 43.804 20.1985 43.804C21.1279 43.804 21.8822 44.5688 21.8822 45.5109C21.8822 47.3928 23.3918 48.9239 25.2489 48.9239H38.7153C40.5724 48.9239 42.0819 47.3928 42.0819 45.5109C42.0819 44.5688 42.8363 43.804 43.7656 43.804C44.6949 43.804 45.4485 44.5688 45.4485 45.5109C45.4485 49.2755 42.4287 52.337 38.7153 52.337Z" fill="#836E90"/>
<path d="M72.3834 36.9778H52.1837C51.2544 36.9778 50.5 36.2137 50.5 35.2716C50.5 34.3295 51.2544 33.5647 52.1837 33.5647H72.3834C73.3127 33.5647 74.0663 34.3295 74.0663 35.2716C74.0663 36.2137 73.3127 36.9778 72.3834 36.9778Z" fill="#836E90"/>
<path d="M80.8041 36.9778H79.1204C78.1911 36.9778 77.4375 36.2137 77.4375 35.2716C77.4375 34.3295 78.1911 33.5647 79.1204 33.5647H80.8041C81.7327 33.5647 82.487 34.3295 82.487 35.2716C82.487 36.2137 81.7327 36.9778 80.8041 36.9778Z" fill="#836E90"/>
<path d="M80.7974 45.5107H60.597C59.6677 45.5107 58.9141 44.7459 58.9141 43.8038C58.9141 42.8625 59.6677 42.0977 60.597 42.0977H80.7974C81.726 42.0977 82.4804 42.8625 82.4804 43.8038C82.4804 44.7459 81.726 45.5107 80.7974 45.5107Z" fill="#836E90"/>
<path d="M53.8666 45.5107H52.1837C51.2544 45.5107 50.5 44.7459 50.5 43.8038C50.5 42.8625 51.2544 42.0977 52.1837 42.0977H53.8666C54.7959 42.0977 55.5503 42.8625 55.5503 43.8038C55.5503 44.7459 54.7959 45.5107 53.8666 45.5107Z" fill="#836E90"/>
<path d="M72.3834 54.0437H52.1837C51.2544 54.0437 50.5 53.2789 50.5 52.3368C50.5 51.3946 51.2544 50.6306 52.1837 50.6306H72.3834C73.3127 50.6306 74.0663 51.3946 74.0663 52.3368C74.0663 53.2789 73.3127 54.0437 72.3834 54.0437Z" fill="#836E90"/>
<path d="M80.8041 54.0437H79.1204C78.1911 54.0437 77.4375 53.2789 77.4375 52.3368C77.4375 51.3946 78.1911 50.6306 79.1204 50.6306H80.8041C81.7327 50.6306 82.487 51.3946 82.487 52.3368C82.487 53.2789 81.7327 54.0437 80.8041 54.0437Z" fill="#836E90"/>
<path d="M72.3834 71.1089H52.1837C51.2544 71.1089 50.5 70.3441 50.5 69.4019C50.5 68.4606 51.2544 67.6958 52.1837 67.6958H72.3834C73.3127 67.6958 74.0663 68.4606 74.0663 69.4019C74.0663 70.3441 73.3127 71.1089 72.3834 71.1089Z" fill="#836E90"/>
<path d="M80.8041 71.1089H79.1204C78.1911 71.1089 77.4375 70.3441 77.4375 69.4019C77.4375 68.4606 78.1911 67.6958 79.1204 67.6958H80.8041C81.7327 67.6958 82.487 68.4606 82.487 69.4019C82.487 70.3441 81.7327 71.1089 80.8041 71.1089Z" fill="#836E90"/>
<path d="M37.0324 71.1089H20.1985C19.27 71.1089 18.5156 70.3441 18.5156 69.4019C18.5156 68.4606 19.27 67.6958 20.1985 67.6958H37.0324C37.9617 67.6958 38.7153 68.4606 38.7153 69.4019C38.7153 70.3441 37.9617 71.1089 37.0324 71.1089Z" fill="#836E90"/>
<path d="M45.4526 71.1089H43.7696C42.8403 71.1089 42.0859 70.3441 42.0859 69.4019C42.0859 68.4606 42.8403 67.6958 43.7696 67.6958H45.4526C46.3819 67.6958 47.1362 68.4606 47.1362 69.4019C47.1362 70.3441 46.3819 71.1089 45.4526 71.1089Z" fill="#836E90"/>
<path d="M80.7974 62.5759H60.597C59.6677 62.5759 58.9141 61.8119 58.9141 60.8698C58.9141 59.9276 59.6677 59.1628 60.597 59.1628H80.7974C81.726 59.1628 82.4804 59.9276 82.4804 60.8698C82.4804 61.8119 81.726 62.5759 80.7974 62.5759Z" fill="#836E90"/>
<path d="M53.8666 62.5759H52.1837C51.2544 62.5759 50.5 61.8119 50.5 60.8698C50.5 59.9276 51.2544 59.1628 52.1837 59.1628H53.8666C54.7959 59.1628 55.5503 59.9276 55.5503 60.8698C55.5503 61.8119 54.7959 62.5759 53.8666 62.5759Z" fill="#836E90"/>
</svg>
