<svg width="88" height="88" viewBox="0 0 88 88" fill="none" xmlns="http://www.w3.org/2000/svg">
<g clip-path="url(#clip0_2034_808)">
<path d="M60.9489 34.707C50.9564 34.707 41.3638 40.0363 36.5673 49.8955L23.1108 44.9659C22.8442 44.8326 22.4446 44.8326 22.1782 44.9659L1.2607 52.427C0.727775 52.5602 0.328125 53.0932 0.328125 53.6261V59.6215C0.328125 60.1545 0.727775 60.6874 1.1276 60.8207L1.66052 60.9539V78.807C1.66052 79.3399 2.06017 79.8728 2.45999 80.0061L22.0451 87.7336C22.3116 87.8669 22.7113 87.8669 22.9777 87.7336L41.7635 80.539C41.8967 80.539 42.03 80.4058 42.1631 80.2725C47.226 85.3354 53.8876 88 60.9489 88C76.1373 88 87.9951 75.6094 87.9951 61.3536C87.9949 46.8312 76.1373 34.707 60.9489 34.707ZM85.3303 60.0212H71.2077C71.2077 57.09 70.9412 54.2921 70.5415 51.4944H83.1986C84.3977 54.1589 85.1972 57.09 85.3303 60.0212ZM81.7331 48.8296H70.0086C69.076 44.2997 67.7436 40.4359 66.0116 37.9046C72.5401 39.237 78.1358 43.1007 81.7331 48.8296ZM68.5431 62.6858C68.5431 65.7501 68.2766 68.548 67.8769 71.2126H54.154C53.7543 68.6813 53.4878 65.7501 53.4878 62.6858H68.5431ZM53.4878 60.0212C53.4878 56.9569 53.7543 54.159 54.154 51.4944H67.7437C68.1433 54.0257 68.4099 56.9569 68.4099 60.0212H53.4878ZM60.9489 37.3717C63.3472 37.3717 65.8785 41.9016 67.2109 48.8296H54.6871C56.1524 41.9016 58.6839 37.3717 60.9489 37.3717ZM56.0193 37.9046C54.154 40.4359 52.8218 44.2997 52.0223 48.8296H40.2978C43.7619 43.1007 49.3577 39.237 56.0193 37.9046ZM21.2456 84.8024L4.32514 78.1408V62.1529L21.2456 68.548V84.8024ZM21.2456 65.617L2.99275 58.6888V55.6245L21.2456 62.5525V65.617ZM22.5778 60.2876L5.52409 53.7592L22.5778 47.6305L39.0987 53.7592L22.5778 60.2876ZM40.0314 78.6737L23.9102 84.6692V68.548L40.0314 62.286C40.0314 68.1483 40.0314 72.4117 40.0314 78.6737ZM41.4969 58.8221C40.2978 59.2217 25.1094 65.2172 23.9102 65.617V62.5527C30.5719 59.8881 28.8398 60.5543 41.4969 55.6247V58.8221ZM40.6976 51.6275H51.3563C51.0897 54.2921 50.8233 57.09 50.8233 60.0212H44.1617C44.1617 59.8879 44.1617 59.8879 44.1617 59.7546V53.7592C44.1617 53.2263 43.7621 52.6934 43.2291 52.5601L40.6976 51.6275ZM51.3561 71.2126H42.696V62.6858H50.6899C50.6899 65.617 50.9565 68.4149 51.3561 71.2126ZM42.696 77.2082V73.8774H51.889C52.6885 78.4073 54.154 82.2711 55.886 84.8024C50.8232 83.7366 46.2932 81.072 42.696 77.2082ZM60.9489 85.3353C58.5507 85.3353 56.0193 80.8054 54.6869 73.8774H67.344C65.8785 80.8054 63.347 85.3353 60.9489 85.3353ZM66.0116 84.8024C67.8769 82.2711 69.2091 78.4073 70.0086 73.8774H81.7331C78.269 79.3399 72.6732 83.3368 66.0116 84.8024ZM83.1986 71.2126H70.5415C70.8079 68.4147 71.0745 65.6168 71.2077 62.6858H85.3303C85.1972 65.7501 84.3977 68.548 83.1986 71.2126Z" fill="#836E90"/>
<path d="M52.1567 20.7176L49.8917 18.8523C49.6252 18.5857 49.0922 18.4526 48.6926 18.5857L41.8977 20.451C38.7001 18.1861 33.2376 14.722 26.576 11.258L34.3035 4.33003C34.57 4.19676 34.7031 3.79711 34.7031 3.39746C34.7031 2.99781 34.4366 2.59798 34.0369 2.33161L30.0401 0.199911C29.6404 -0.066637 29.2406 -0.066637 28.841 0.199911L15.9175 6.86155C7.39054 3.93038 2.19457 4.19676 0.462522 7.66085C-1.26953 11.1249 1.92802 15.1218 9.65551 19.3854L12.4534 32.975C12.5867 33.3747 12.8531 33.7745 13.2529 33.9076L17.5163 35.5064C17.9159 35.6396 18.3157 35.6396 18.7154 35.3731C19.115 35.1065 19.2483 34.7069 19.3816 34.3072L20.0478 24.1815C27.2424 26.8461 33.5043 28.5782 37.5012 29.5107L40.2991 35.6395C40.4324 36.0391 40.832 36.3057 41.2317 36.4389L44.1628 36.9719C44.5625 37.1051 44.9623 36.8386 45.3619 36.5722C45.6285 36.3057 45.7616 35.906 45.7616 35.3731L45.0954 30.4435C46.6942 30.5768 48.8259 30.71 49.4921 29.3776C50.1583 28.1785 49.0924 26.9794 47.6268 25.5139L52.0234 22.8493C52.4231 22.5827 52.6896 22.1831 52.6896 21.7834C52.6896 21.3838 52.5563 20.9841 52.1567 20.7176ZM44.9621 24.4482C44.2959 24.8479 44.1627 25.9137 44.6956 26.4466C45.2285 26.9796 45.7614 27.5125 46.2944 28.0454C45.4951 28.0454 44.5623 27.9121 43.8961 27.9121C42.9635 27.9121 42.4306 28.7116 42.5637 29.3776L43.2299 34.0407L42.8303 33.9074L40.0324 27.912C39.8991 27.5123 39.3662 27.2458 39.0998 27.1125C35.1028 26.1799 27.9082 24.1813 19.7811 21.1171C18.9816 20.8505 18.049 21.3836 17.9158 22.3162L17.2495 32.4419L15.2511 31.7757L12.1869 18.3192C12.0536 17.9195 11.7872 17.5197 11.5207 17.3866C5.12557 13.9225 1.92785 10.7249 2.86059 8.8598C3.79317 6.86138 8.58966 7.12775 15.5177 9.65927C15.9173 9.79255 16.3171 9.79255 16.5835 9.65927L29.3739 2.99763L31.1059 3.93021L23.3784 10.7251C22.7122 11.3913 22.7122 12.4572 23.645 12.9901C31.3725 16.9871 37.6345 20.8509 40.9653 23.2489C41.2318 23.3822 41.7648 23.5155 42.0311 23.5155L48.826 21.6502L49.0926 21.9167L44.9621 24.4482Z" fill="#836E90"/>
</g>
<defs>
<clipPath id="clip0_2034_808">
<rect width="88" height="88" fill="white"/>
</clipPath>
</defs>
</svg>
