<svg width="88" height="88" viewBox="0 0 88 88" fill="none" xmlns="http://www.w3.org/2000/svg">
<path d="M53.9103 26.9664V24.2824H68.1278V26.9664C68.1278 29.1155 69.8755 30.8645 72.0259 30.8645H79.4977C81.6468 30.8645 83.3972 29.1169 83.3972 26.9664V12.5509C83.3972 10.4018 81.6482 8.65278 79.4977 8.65278H72.0259C69.8768 8.65278 68.1278 10.4004 68.1278 12.5509V15.2349H53.9103V12.5509C53.9103 10.4018 52.1627 8.65278 50.0122 8.65278H42.5391C40.3899 8.65278 38.641 10.4004 38.641 12.5509V26.9664C38.641 29.1155 40.3886 30.8645 42.5391 30.8645H50.0122C52.1627 30.8645 53.9103 29.1169 53.9103 26.9664ZM70.8778 12.5509C70.8778 11.9184 71.3934 11.4028 72.0259 11.4028H79.4977C80.1316 11.4028 80.6472 11.9184 80.6472 12.5509V26.9664C80.6472 27.5989 80.1316 28.1145 79.4977 28.1145H72.0259C71.3934 28.1145 70.8778 27.5989 70.8778 26.9664V12.5509ZM68.1278 17.9849V21.5324H53.9103V17.9849H68.1278ZM51.1603 26.9664C51.1603 27.5989 50.6447 28.1145 50.0122 28.1145H42.5391C41.9066 28.1145 41.391 27.5989 41.391 26.9664V12.5509C41.391 11.9184 41.9066 11.4028 42.5391 11.4028H50.0122C50.6447 11.4028 51.1603 11.9184 51.1603 12.5509V26.9664ZM83.5031 39.2287C83.5031 38.4683 82.8885 37.8537 82.1281 37.8537H59.3031C54.8137 37.8537 51.1631 41.5043 51.1631 45.9937V72.4308C51.1631 72.4486 51.1603 72.4665 51.1603 72.4844C51.1603 76.6836 54.5758 80.0992 58.7751 80.0992H82.1308C82.8912 80.0992 83.5058 79.4845 83.5058 78.7242L83.5031 39.2287ZM59.3031 40.6037H80.7531V64.8697H58.7751C56.9271 64.8697 55.2331 65.5324 53.9131 66.6297V45.9937C53.9131 43.0223 56.3317 40.6037 59.3031 40.6037ZM80.7558 77.3492H58.7751C56.0938 77.3492 53.9131 75.1698 53.9103 72.4899H53.9131V72.4583C53.9282 69.7894 56.1021 67.621 58.7751 67.621H80.7558V77.3492ZM39.0218 52.595V51.3562C39.0218 49.2703 37.332 47.5749 35.2543 47.5749H31.7618C29.6842 47.5749 27.9957 49.2703 27.9957 51.3562V52.4383H21.6831V51.3562C21.6831 49.2703 19.9932 47.5749 17.9169 47.5749H14.4244C12.3468 47.5749 10.6569 49.2703 10.6569 51.3562V52.595C7.91107 53.1918 5.77157 55.5416 5.56395 58.4415L4.50932 73.0536C4.37732 74.8673 5.01257 76.6713 6.25282 78.0036C7.49307 79.336 9.2462 80.0992 11.0653 80.0992C13.1237 80.0992 15.0899 79.116 16.3233 77.4688L19.7773 72.8639C20.3906 72.0458 21.3682 71.5576 22.3898 71.5576H27.2862C28.3092 71.5576 29.2855 72.0444 29.8987 72.8625L33.3541 77.4688C34.5875 79.116 36.5537 80.0992 38.6107 80.0992C40.4298 80.0992 42.1843 79.3346 43.4232 78.0036C44.6621 76.6726 45.2973 74.8687 45.1667 73.0536L44.1134 58.4415C43.9058 55.5416 41.7677 53.1931 39.0218 52.595ZM30.7443 51.3562C30.7443 50.7883 31.2008 50.3249 31.7605 50.3249H35.253C35.8139 50.3249 36.2705 50.7883 36.2705 51.3562V52.4383H30.7429V51.3562H30.7443ZM14.4231 50.3249H17.9156C18.4752 50.3249 18.9317 50.7883 18.9317 51.3562V52.4383H13.4056V51.3562C13.4056 50.7883 13.8621 50.3249 14.4231 50.3249ZM41.4102 76.1295C40.6787 76.916 39.6846 77.3492 38.6107 77.3492C37.4144 77.3492 36.2718 76.7771 35.5527 75.8201L32.0973 71.2139C30.9698 69.7069 29.17 68.8076 27.2848 68.8076H22.3885C20.5061 68.8076 18.7062 69.7069 17.5759 71.2139L14.1219 75.8201C13.4042 76.7771 12.2602 77.3492 11.0626 77.3492C9.9887 77.3492 8.99458 76.9174 8.26307 76.1295C7.53295 75.3444 7.1727 74.3228 7.2497 73.2516L8.30432 58.6395C8.44457 56.7035 10.074 55.1869 12.0155 55.1869H37.6592C39.6007 55.1869 41.2314 56.7035 41.3703 58.6395L42.4236 73.2516C42.5006 74.3228 42.1403 75.3444 41.4102 76.1295ZM15.7266 57.7045C13.1237 57.7045 11.0062 59.822 11.0062 62.4249C11.0062 65.0292 13.1237 67.1466 15.7266 67.1466C18.3308 67.1466 20.4483 65.0292 20.4483 62.4249C20.4483 59.822 18.3308 57.7045 15.7266 57.7045ZM15.7266 64.3953C14.6403 64.3953 13.7562 63.5098 13.7562 62.4235C13.7562 61.3373 14.6403 60.4531 15.7266 60.4531C16.8128 60.4531 17.6983 61.3373 17.6983 62.4235C17.6983 63.5098 16.8142 64.3953 15.7266 64.3953ZM33.9481 57.7045C31.3438 57.7045 29.2263 59.822 29.2263 62.4249C29.2263 65.0292 31.3438 67.1466 33.9481 67.1466C36.551 67.1466 38.6684 65.0292 38.6684 62.4249C38.6684 59.822 36.551 57.7045 33.9481 57.7045ZM33.9481 64.3953C32.8618 64.3953 31.9763 63.5098 31.9763 62.4235C31.9763 61.3373 32.8618 60.4531 33.9481 60.4531C35.0343 60.4531 35.9184 61.3373 35.9184 62.4235C35.9184 63.5098 35.0343 64.3953 33.9481 64.3953ZM12.0155 18.3355C13.1897 18.8594 14.4464 19.1152 15.7018 19.1152C16.8032 19.1152 17.8949 18.8938 18.9372 18.5047V23.6623H9.05095C8.6412 23.6623 8.25345 23.8452 7.9922 24.1587C7.73095 24.4735 7.62232 24.8888 7.69932 25.2917L10.0121 37.5608C10.4741 40.022 12.6287 41.8082 15.1339 41.8082H25.4891C27.9929 41.8082 30.1476 40.022 30.6123 37.5622L32.9251 25.2917C33.0021 24.8888 32.8948 24.4735 32.6322 24.1587C32.3723 23.8438 31.9832 23.6623 31.5735 23.6623H21.6872V18.506C22.7281 18.8952 23.8198 19.1152 24.9212 19.1152C26.1766 19.1152 27.4333 18.858 28.6076 18.3355C31.5625 17.0169 33.6167 14.1762 33.9673 10.9202C34.021 10.4293 33.8051 9.94528 33.4036 9.65653C30.7471 7.73978 27.2573 7.37128 24.3052 8.6899C22.6304 9.43653 21.2609 10.6837 20.3122 12.2058C19.3621 10.6823 17.9939 9.43653 16.3192 8.6899C13.3588 7.3699 9.87457 7.74253 7.21807 9.65653C6.81657 9.94528 6.6007 10.4293 6.65432 10.9202C7.00632 14.1775 9.06058 17.0183 12.0155 18.3355ZM27.9104 37.0534C27.6905 38.2167 26.6729 39.0595 25.4891 39.0595H15.1339C13.9514 39.0595 12.9326 38.2167 12.7139 37.0534L10.7092 26.4137H29.9152L27.9104 37.0534ZM25.4231 11.2007C27.2683 10.377 29.3322 10.4788 31.0922 11.444C30.6343 13.3979 29.3295 15.0012 27.4856 15.8248C25.6417 16.6443 23.5764 16.5439 21.8164 15.5814C22.2743 13.6275 23.5792 12.0243 25.4231 11.2007ZM15.1972 11.2007C17.0411 12.0243 18.3459 13.6275 18.8038 15.5814C17.0452 16.5453 14.9813 16.6429 13.1361 15.8248C11.2922 15.0012 9.98595 13.3979 9.52807 11.444C11.2881 10.4788 13.3533 10.3798 15.1972 11.2007Z" fill="#836E90"/>
</svg>
