<svg width="84" height="84" viewBox="0 0 84 84" fill="none" xmlns="http://www.w3.org/2000/svg">
<path d="M82.6188 34.8857C82.5626 34.5677 82.3963 34.2795 82.1489 34.0719C81.9015 33.8642 81.5888 33.7502 81.2658 33.75H62.1616L62.977 27.9214C64.3185 27.3832 65.5343 26.5734 66.548 25.5429C67.5617 24.5124 68.3514 23.2835 68.8675 21.9333C70.7196 17.3215 67.9228 7.0365 67.597 5.87738C67.5399 5.67469 67.437 5.48783 67.2963 5.3312C67.1556 5.17456 66.9807 5.05234 66.7853 4.97395C66.5899 4.89557 66.3791 4.86311 66.1691 4.87909C65.9591 4.89507 65.7557 4.95906 65.5743 5.06612C64.539 5.678 55.4076 11.1753 53.5555 15.7911C52.9975 17.117 52.718 18.5433 52.7344 19.9817C52.7507 21.42 53.0625 22.8397 53.6503 24.1525L50.2486 28.8247V2.125C50.2486 1.76033 50.1037 1.41059 49.8459 1.15273C49.588 0.894866 49.2383 0.75 48.8736 0.75H35.1236C34.7589 0.75 34.4092 0.894866 34.1513 1.15273C33.8935 1.41059 33.7486 1.76033 33.7486 2.125V31.6132L28.0547 15.9685C28.0046 15.8294 27.9322 15.6993 27.8402 15.5835L19.7277 5.36725C19.5483 5.14115 19.3023 4.97724 19.0246 4.89873C18.7469 4.82022 18.4515 4.83109 18.1803 4.92981C17.9091 5.02853 17.6758 5.21008 17.5135 5.44876C17.3512 5.68743 17.2682 5.97112 17.2761 6.25962L17.6336 19.2946C17.6381 19.4426 17.6664 19.5888 17.7175 19.7278L22.8215 33.75H2.74234C2.42056 33.7503 2.10907 33.8634 1.86209 34.0697C1.61512 34.2759 1.44831 34.5623 1.39072 34.8789C0.541636 39.6211 0.541636 44.4765 1.39072 49.2188C1.44778 49.5361 1.61454 49.8232 1.86186 50.0301C2.10917 50.2369 2.4213 50.3503 2.74372 50.3504H9.95284C10.7292 53.3386 11.9191 56.2038 13.488 58.863L8.40047 63.9505C8.17227 64.1788 8.03166 64.4801 8.00325 64.8016C7.97485 65.1231 8.06046 65.4444 8.24509 65.7091C10.9883 69.6321 14.4037 73.0391 18.3335 75.7728C18.5976 75.9575 18.9183 76.0436 19.2395 76.016C19.5607 75.9883 19.862 75.8487 20.0907 75.6215L25.1975 70.534C27.8665 72.1013 30.7408 73.2893 33.7376 74.0636V81.2508C33.7377 81.5732 33.851 81.8853 34.0579 82.1326C34.2647 82.3799 34.5519 82.5467 34.8692 82.6037C37.2165 83.032 39.5975 83.2482 41.9835 83.25C44.3833 83.2495 46.7783 83.036 49.1403 82.612C49.4584 82.5555 49.7464 82.3888 49.9538 82.1411C50.1613 81.8934 50.2749 81.5807 50.2747 81.2576V74.0705C53.2696 73.293 56.1425 72.1052 58.8121 70.5409L63.8996 75.6284C64.1274 75.8557 64.4278 75.9959 64.7484 76.0246C65.0691 76.0532 65.3895 75.9685 65.6541 75.7851C69.5892 73.0559 73.0063 69.6471 75.7452 65.7188C75.9304 65.454 76.0164 65.1326 75.9883 64.8107C75.9601 64.4889 75.8195 64.1873 75.5912 63.9588L70.5037 58.8713C72.0812 56.2153 73.2721 53.348 74.0402 50.3559H81.2617C81.5841 50.3558 81.8963 50.2424 82.1436 50.0356C82.3909 49.8288 82.5577 49.5416 82.6147 49.2243C83.45 44.4814 83.4514 39.6291 82.6188 34.8857ZM56.1075 16.8114C57.1758 14.1508 62.262 10.441 65.4066 8.40737C66.2728 12.0511 67.3838 18.2482 66.3168 20.9089C64.869 24.51 61.3998 26.5216 58.5907 25.39C55.7816 24.2584 54.6623 20.4125 56.1075 16.8114ZM61.2486 42C61.2436 45.6422 60.2054 49.2082 58.2547 52.2839C56.3039 55.3597 53.5206 57.8188 50.228 59.3759L60.7756 37.8324C61.0859 39.2 61.2446 40.5976 61.2486 42ZM55.3361 26.5024C56.6226 27.7416 58.3376 28.4366 60.1238 28.4425L59.4638 33.1587L52.5311 30.3579L55.3361 26.5024ZM51.2372 32.8026L58.7007 35.8125L46.5223 60.6904C45.0565 61.0501 43.5532 61.2347 42.044 61.2404L51.2372 32.8026ZM36.4986 36.5H40.6236V33.75H36.4986V28.25H40.6236V25.5H36.4986V20H40.6236V17.25H36.4986V11.75H40.6236V9H36.4986V3.5H47.4986V35.4357L41.6851 53.4207L36.4986 39.1702V36.5ZM20.1361 10.3076L24.4962 15.798L20.3286 17.3105L20.1361 10.3076ZM25.9386 18.2001L40.3087 57.675L39.2252 61.0245C37.8891 60.8308 36.5773 60.4957 35.312 60.0249L20.7713 20.0798L25.9386 18.2001ZM23.685 36.1232L31.7438 58.2607C28.9929 56.5309 26.7251 54.1323 25.1521 51.2888C23.5791 48.4453 22.7522 45.2496 22.7486 42C22.7506 40.0041 23.0666 38.0209 23.685 36.1232ZM80.0957 47.6004H72.9608C72.6478 47.6001 72.3441 47.7067 72.0998 47.9024C71.8556 48.0982 71.6854 48.3714 71.6175 48.677C70.8601 52.105 69.5033 55.3722 67.6093 58.3281C67.4404 58.5921 67.3667 58.9059 67.4005 59.2174C67.4342 59.529 67.5734 59.8197 67.795 60.0414L72.8247 65.0697C70.6206 68.0336 67.9913 70.656 65.0216 72.8522L59.9891 67.8321C59.7686 67.6123 59.48 67.4738 59.1705 67.4393C58.861 67.4048 58.549 67.4764 58.2855 67.6424C55.3093 69.5215 52.0328 70.8763 48.5986 71.6478C48.2942 71.7164 48.0223 71.8865 47.8274 72.1301C47.6325 72.3737 47.5262 72.6764 47.5261 72.9884V80.0875C43.866 80.6341 40.145 80.6341 36.4848 80.0875V72.9884C36.4847 72.6764 36.3784 72.3737 36.1835 72.1301C35.9886 71.8865 35.7167 71.7164 35.4123 71.6478C31.9771 70.8802 28.7001 69.5256 25.7255 67.6438C25.4621 67.4771 25.15 67.4048 24.8402 67.4388C24.5305 67.4728 24.2414 67.611 24.0205 67.8307L18.977 72.8509C16.0086 70.6522 13.3783 68.0307 11.1697 65.0697L16.1995 60.0414C16.4208 59.8202 16.5601 59.5302 16.5943 59.2192C16.6286 58.9083 16.5557 58.5949 16.3878 58.3309C14.5036 55.367 13.1461 52.0995 12.3756 48.6729C12.3069 48.3683 12.1366 48.0962 11.8927 47.9013C11.6488 47.7063 11.3458 47.6002 11.0336 47.6004H3.91109C3.36796 43.9202 3.36796 40.1802 3.91109 36.5H20.6998C20.2329 38.296 19.9973 40.1443 19.9986 42C19.9986 47.8348 22.3164 53.4305 26.4422 57.5564C30.568 61.6822 36.1638 64 41.9986 64C47.8334 64 53.4291 61.6822 57.5549 57.5564C61.6807 53.4305 63.9986 47.8348 63.9986 42C64.0008 40.1444 63.7661 38.2961 63.3001 36.5H80.0943C80.6283 40.1808 80.6288 43.9194 80.0957 47.6004Z" fill="#836E90"/>
</svg>
