<svg width="16" height="10" viewBox="0 0 16 10" fill="none" xmlns="http://www.w3.org/2000/svg">
<path d="M11.7759 0.389587C11.5307 0.146601 11.135 0.148366 10.892 0.393531C10.649 0.638695 10.6508 1.03442 10.896 1.27741L12.3651 2.73349C12.9614 3.32444 13.3704 3.73114 13.6471 4.07575C13.737 4.18774 13.8072 4.28633 13.8617 4.37516L1.33594 4.37516C0.990759 4.37516 0.710938 4.65499 0.710938 5.00016C0.710938 5.34534 0.99076 5.62516 1.33594 5.62516L13.8617 5.62516C13.8072 5.71399 13.737 5.81258 13.6471 5.92457C13.3704 6.26918 12.9614 6.67588 12.3651 7.26683L10.896 8.72292C10.6508 8.96591 10.649 9.36163 10.892 9.6068C11.135 9.85196 11.5307 9.85372 11.7759 9.61074L13.2715 8.12841C13.8348 7.57012 14.2952 7.11384 14.6217 6.70728C14.9612 6.28451 15.207 5.85539 15.2727 5.3403C15.2871 5.22737 15.2943 5.11377 15.2943 5.00016C15.2943 4.88656 15.2871 4.77296 15.2727 4.66003C15.207 4.14493 14.9612 3.71582 14.6217 3.29305C14.2952 2.88648 13.8348 2.43019 13.2715 1.8719L11.7759 0.389587Z" fill="white"/>
</svg>
