<svg width="12" height="12" viewBox="0 0 12 12" fill="none" xmlns="http://www.w3.org/2000/svg">
<path d="M5.40919 0.0717611C5.06402 0.0733009 4.78545 0.354369 4.78699 0.699543C4.78853 1.04472 5.0696 1.32329 5.41477 1.32175L7.48322 1.31252C8.32269 1.30877 8.89948 1.30715 9.33885 1.35513C9.48163 1.37072 9.60097 1.39082 9.70231 1.4151L0.845252 10.2722C0.601174 10.5162 0.601174 10.912 0.845252 11.156C1.08933 11.4001 1.48506 11.4001 1.72914 11.156L10.5862 2.29899C10.6105 2.40033 10.6306 2.51966 10.6462 2.66245C10.6941 3.10181 10.6925 3.6786 10.6888 4.51807L10.6795 6.58652C10.678 6.9317 10.9566 7.21276 11.3018 7.21431C11.6469 7.21584 11.928 6.93727 11.9295 6.5921L11.9389 4.48637C11.9425 3.69329 11.9454 3.0451 11.8888 2.52675C11.8299 1.98772 11.7003 1.5105 11.3825 1.09985C11.3128 1.00982 11.2376 0.924398 11.1572 0.844069C11.0769 0.763739 10.9915 0.688498 10.9014 0.618824C10.4908 0.301021 10.0136 0.171382 9.47455 0.112517C8.95619 0.0559084 8.30799 0.0588123 7.5149 0.0623654L5.40919 0.0717611Z" fill="#A779C1"/>
</svg>
