<svg width="32" height="32" viewBox="0 0 32 32" fill="none" xmlns="http://www.w3.org/2000/svg">
<path d="M0.667969 6.41663C0.667969 4.63052 0.667969 3.73746 0.959764 3.03301C1.34882 2.09373 2.09507 1.34748 3.03435 0.958421C3.7388 0.666626 4.63186 0.666626 6.41797 0.666626C8.20408 0.666626 9.09713 0.666626 9.80159 0.958421C10.7409 1.34748 11.4871 2.09373 11.8762 3.03301C12.168 3.73746 12.168 4.63052 12.168 6.41663C12.168 8.20274 12.168 9.09579 11.8762 9.80025C11.4871 10.7395 10.7409 11.4858 9.80159 11.8748C9.09713 12.1666 8.20408 12.1666 6.41797 12.1666C4.63186 12.1666 3.7388 12.1666 3.03435 11.8748C2.09507 11.4858 1.34882 10.7395 0.959764 9.80025C0.667969 9.09579 0.667969 8.20274 0.667969 6.41663Z" fill="white"/>
<path d="M19.8346 6.41663C19.8346 4.63052 19.8346 3.73746 20.1264 3.03301C20.5155 2.09373 21.2617 1.34748 22.201 0.958421C22.9055 0.666626 23.7985 0.666626 25.5846 0.666626C27.3707 0.666626 28.2638 0.666626 28.9683 0.958421C29.9075 1.34748 30.6538 2.09373 31.0428 3.03301C31.3346 3.73746 31.3346 4.63052 31.3346 6.41663C31.3346 8.20274 31.3346 9.09579 31.0428 9.80025C30.6538 10.7395 29.9075 11.4858 28.9683 11.8748C28.2638 12.1666 27.3707 12.1666 25.5846 12.1666C23.7985 12.1666 22.9055 12.1666 22.201 11.8748C21.2617 11.4858 20.5155 10.7395 20.1264 9.80025C19.8346 9.09579 19.8346 8.20274 19.8346 6.41663Z" fill="white"/>
<path d="M0.667969 25.5833C0.667969 23.7972 0.667969 22.9041 0.959764 22.1997C1.34882 21.2604 2.09507 20.5141 3.03435 20.1251C3.7388 19.8333 4.63186 19.8333 6.41797 19.8333C8.20408 19.8333 9.09713 19.8333 9.80159 20.1251C10.7409 20.5141 11.4871 21.2604 11.8762 22.1997C12.168 22.9041 12.168 23.7972 12.168 25.5833C12.168 27.3694 12.168 28.2625 11.8762 28.9669C11.4871 29.9062 10.7409 30.6524 9.80159 31.0415C9.09713 31.3333 8.20408 31.3333 6.41797 31.3333C4.63186 31.3333 3.7388 31.3333 3.03435 31.0415C2.09507 30.6524 1.34882 29.9062 0.959764 28.9669C0.667969 28.2625 0.667969 27.3694 0.667969 25.5833Z" fill="white"/>
<path d="M19.8346 25.5833C19.8346 23.7972 19.8346 22.9041 20.1264 22.1997C20.5155 21.2604 21.2617 20.5141 22.201 20.1251C22.9055 19.8333 23.7985 19.8333 25.5846 19.8333C27.3707 19.8333 28.2638 19.8333 28.9683 20.1251C29.9075 20.5141 30.6538 21.2604 31.0428 22.1997C31.3346 22.9041 31.3346 23.7972 31.3346 25.5833C31.3346 27.3694 31.3346 28.2625 31.0428 28.9669C30.6538 29.9062 29.9075 30.6524 28.9683 31.0415C28.2638 31.3333 27.3707 31.3333 25.5846 31.3333C23.7985 31.3333 22.9055 31.3333 22.201 31.0415C21.2617 30.6524 20.5155 29.9062 20.1264 28.9669C19.8346 28.2625 19.8346 27.3694 19.8346 25.5833Z" fill="white"/>
</svg>
