<svg width="46" height="46" viewBox="0 0 46 46" fill="none" xmlns="http://www.w3.org/2000/svg">
<path d="M31.2999 25.1934L20.8901 14.7837C20.1586 15.7775 19.4934 16.783 18.8906 17.7839L28.2997 27.193C29.3009 26.5899 30.3062 25.925 31.2999 25.1934Z" fill="white"/>
<path d="M25.8505 28.5573L17.5247 20.2316C16.5645 22.0964 15.809 23.8945 15.2203 25.5113C14.1062 25.0523 12.9019 24.8116 11.6605 24.8116C9.16563 24.8116 6.82016 25.7832 5.05607 27.5473C2.77744 29.8258 2.77744 33.1249 2.77744 36.0357C2.77744 38.655 2.77744 41.129 1.28836 42.6182L0 43.9065L1.60902 44.7613C1.69635 44.8076 3.78217 45.8972 6.88403 45.9184C6.91395 45.9185 6.9436 45.9186 6.97388 45.9186C9.79193 45.9185 14.0093 45.012 18.265 40.7564C20.9212 38.1003 21.6395 34.2294 20.421 30.9156C22.0795 30.3183 23.9305 29.5461 25.8505 28.5573Z" fill="white"/>
<path d="M44.393 0.081543L43.661 0.255122C40.9491 0.898136 31.5408 3.55617 24.3358 10.7612C23.7169 11.3802 23.1321 12.0149 22.5781 12.66L33.4237 23.5055C34.0687 22.9515 34.7034 22.3666 35.3222 21.7476C42.5273 14.5426 45.1853 5.13429 45.8284 2.42243L46.002 1.69047L44.393 0.081543Z" fill="white"/>
</svg>
