<svg width="46" height="32" viewBox="0 0 46 32" fill="none" xmlns="http://www.w3.org/2000/svg">
<path d="M16.5817 13.8722C14.9236 12.2233 13.8971 9.93981 13.8971 7.41663C13.8971 4.89344 14.9236 2.60999 16.5817 0.961061C15.627 0.492336 14.5532 0.229126 13.418 0.229126C9.44842 0.229126 6.23047 3.44708 6.23047 7.41663C6.23047 11.3862 9.44842 14.6041 13.418 14.6041C14.5532 14.6041 15.627 14.3409 16.5817 13.8722Z" fill="white"/>
<path d="M15.8138 7.41663C15.8138 3.44708 19.0318 0.229126 23.0013 0.229126C26.9708 0.229126 30.1888 3.44708 30.1888 7.41663C30.1888 11.3862 26.9708 14.6041 23.0013 14.6041C19.0318 14.6041 15.8138 11.3862 15.8138 7.41663Z" fill="white"/>
<path d="M29.4209 0.961061C31.079 2.60999 32.1055 4.89344 32.1055 7.41663C32.1055 9.93981 31.079 12.2233 29.4209 13.8722C30.3755 14.3409 31.4494 14.6041 32.5846 14.6041C36.5542 14.6041 39.7721 11.3862 39.7721 7.41663C39.7721 3.44708 36.5542 0.229126 32.5846 0.229126C31.4494 0.229126 30.3755 0.492336 29.4209 0.961061Z" fill="white"/>
<path d="M10.0638 24.6666C10.0638 20.6971 13.2818 17.4791 17.2513 17.4791H28.7513C32.7208 17.4791 35.9388 20.6971 35.9388 24.6666C35.9388 28.6362 32.7208 31.8541 28.7513 31.8541H17.2513C13.2818 31.8541 10.0638 28.6362 10.0638 24.6666Z" fill="white"/>
<path d="M0.480469 22.75C0.480469 18.7804 3.69842 15.5625 7.66797 15.5625H17.2513C12.2232 15.5625 8.14713 19.6385 8.14713 24.6666C8.14713 26.631 8.76925 28.45 9.82719 29.9375H7.66797C3.69842 29.9375 0.480469 26.7195 0.480469 22.75Z" fill="white"/>
<path d="M37.8555 24.6666C37.8555 26.631 37.2334 28.45 36.1754 29.9375H38.3346C42.3042 29.9375 45.5221 26.7195 45.5221 22.75C45.5221 18.7804 42.3042 15.5625 38.3346 15.5625H28.7513C33.7794 15.5625 37.8555 19.6385 37.8555 24.6666Z" fill="white"/>
</svg>
