<svg width="32" height="46" viewBox="0 0 32 46" fill="none" xmlns="http://www.w3.org/2000/svg">
<path d="M2.02627 43.6365C2.25386 44.2492 2.81409 44.6767 3.46477 44.7336C4.11546 44.792 4.7428 44.471 5.07689 43.9078C6.06313 42.2388 7.595 40.3625 9.79069 39.4886C7.8153 35.1219 6.64086 31.2337 5.94641 28.0707C3.33201 29.9863 -1.25486 34.8257 2.02627 43.6365Z" fill="white"/>
<path d="M26.084 28.094C25.3866 31.2512 24.2151 35.135 22.2383 39.4944C24.4179 40.3756 25.9396 42.2446 26.9229 43.9034C27.2555 44.4695 27.8829 44.7861 28.5336 44.7292C29.1842 44.6694 29.743 44.2419 29.9706 43.6292C33.2357 34.8651 28.6984 30.033 26.084 28.094Z" fill="white"/>
<path d="M25.3127 19.5051C25.4104 9.79708 20.1116 3.30464 17.4024 0.624504C16.9939 0.220368 16.438 -0.00431415 15.8603 6.27699e-05C15.2855 0.00589867 14.7354 0.240794 14.3328 0.653683C11.7082 3.34841 6.62381 9.83209 6.7201 19.5036C6.7201 19.5036 6.23573 28.4384 12.3107 40.7084H15.9537H16.0791H19.7221C25.7956 28.4384 25.3127 19.5051 25.3127 19.5051ZM13.5931 11.685C13.5041 11.8309 11.9183 14.5314 12.5792 18.8019C12.7265 19.7619 12.0671 20.6591 11.1071 20.808C11.0181 20.8211 10.9291 20.8284 10.8387 20.8284C9.98664 20.8284 9.23821 20.2083 9.10399 19.3402C8.22863 13.6794 10.5177 9.97361 10.614 9.81896C11.1334 8.99902 12.2203 8.75391 13.0402 9.27184C13.8528 9.78686 14.1037 10.8665 13.5931 11.685ZM15.1367 3.39801C16.2163 3.39801 17.0931 4.2734 17.0931 5.35596C17.0931 6.43852 16.2148 7.31536 15.1367 7.31536C14.0527 7.31536 13.1759 6.43852 13.1759 5.35596C13.1759 4.2734 14.0527 3.39801 15.1367 3.39801Z" fill="white"/>
<path d="M21.3721 42.7932H10.7891V46H21.3721V42.7932Z" fill="white"/>
</svg>
