<svg width="42" height="44" viewBox="0 0 42 44" fill="none" xmlns="http://www.w3.org/2000/svg">
<path d="M9.43836 3.5183C10.0583 3.02235 10.1588 2.11774 9.66286 1.49781C9.16691 0.877867 8.2623 0.777355 7.64237 1.27331L2.8507 5.10664C2.23076 5.60259 2.13025 6.5072 2.6262 7.12714C3.12215 7.74708 4.02676 7.84759 4.6467 7.35164L9.43836 3.5183Z" fill="white"/>
<path d="M34.355 1.27331C33.7351 0.777355 32.8305 0.877867 32.3345 1.49781C31.8386 2.11774 31.9391 3.02235 32.559 3.5183L37.3507 7.35164C37.9706 7.84759 38.8752 7.74708 39.3712 7.12714C39.8671 6.5072 39.7666 5.60259 39.1467 5.10664L34.355 1.27331Z" fill="white"/>
<path fill-rule="evenodd" clip-rule="evenodd" d="M20.9987 2.3958C9.61933 2.3958 0.394531 11.6206 0.394531 23C0.394531 34.3793 9.61933 43.6041 20.9987 43.6041C32.3781 43.6041 41.6029 34.3793 41.6029 23C41.6029 11.6206 32.3781 2.3958 20.9987 2.3958ZM22.4362 13.4166C22.4362 12.6227 21.7926 11.9791 20.9987 11.9791C20.2048 11.9791 19.5612 12.6227 19.5612 13.4166V23C19.5614 24.3664 21.2134 25.0507 22.1796 24.0845L26.0811 20.1831C26.6424 19.6217 26.6424 18.7116 26.0811 18.1502C25.5197 17.5888 24.6095 17.5888 24.0481 18.1502L22.4362 19.7621V13.4166Z" fill="white"/>
</svg>
