<svg width="42" height="46" viewBox="0 0 42 46" fill="none" xmlns="http://www.w3.org/2000/svg">
<path fill-rule="evenodd" clip-rule="evenodd" d="M14.1666 5.28343C16.1281 -1.58959 25.8685 -1.58959 27.83 5.28343C28.4564 7.47832 30.7114 8.78023 32.9254 8.22526C39.8583 6.48743 44.7285 14.9229 39.7571 20.0581C38.1694 21.698 38.1694 24.3018 39.7571 25.9417C44.7285 31.0769 39.8583 39.5124 32.9254 37.7746C30.7114 37.2196 28.4564 38.5215 27.83 40.7164C25.8685 47.5894 16.1281 47.5894 14.1666 40.7164C13.5402 38.5215 11.2853 37.2196 9.07123 37.7746C2.13829 39.5124 -2.73193 31.0769 2.23955 25.9417C3.82719 24.3018 3.82719 21.698 2.23955 20.0581C-2.73192 14.9229 2.13828 6.48743 9.07123 8.22526C11.2853 8.78024 13.5402 7.47832 14.1666 5.28343ZM29.7694 18.1702C30.2776 17.5603 30.1952 16.6539 29.5853 16.1456C28.9754 15.6374 28.069 15.7198 27.5607 16.3297L20.9222 24.2958C20.2115 25.1487 19.7751 25.667 19.4156 25.9916C19.2488 26.1422 19.1499 26.2022 19.1025 26.2251C19.0929 26.2298 19.086 26.2326 19.0817 26.2342C19.0774 26.2326 19.0705 26.2298 19.0609 26.2251C19.0135 26.2022 18.9146 26.1422 18.7478 25.9916C18.3883 25.667 17.9519 25.1487 17.2412 24.2958L14.436 20.9297C13.9278 20.3198 13.0213 20.2374 12.4114 20.7456C11.8015 21.2539 11.7191 22.1603 12.2274 22.7702L15.0938 26.2098C15.7233 26.9655 16.2909 27.6467 16.821 28.1254C17.3978 28.6463 18.1244 29.1102 19.0817 29.1102C20.0391 29.1102 20.7656 28.6463 21.3424 28.1254C21.8725 27.6467 22.4401 26.9655 23.0696 26.2099L29.7694 18.1702Z" fill="white"/>
</svg>
